<?xml version="1.0" encoding="utf-8"?>
<!-- Generator: Adobe Illustrator 22.1.0, SVG Export Plug-In . SVG Version: 6.00 Build 0)  -->
<svg version="1.1" xmlns="http://www.w3.org/2000/svg" xmlns:xlink="http://www.w3.org/1999/xlink" x="0px" y="0px"
	 viewBox="0 0 1440 1280" style="enable-background:new 0 0 1440 1280;" xml:space="preserve">
<style type="text/css">
	.st0{fill:url(#SVGID_1_);stroke:#000000;stroke-miterlimit:10;}
	.st1{display:none;fill:url(#SVGID_2_);}
	.st2{clip-path:url(#SVGID_4_);}
	.st3{clip-path:url(#SVGID_6_);}
	.st4{filter:url(#Adobe_OpacityMaskFilter);}
	.st5{clip-path:url(#SVGID_8_);fill:url(#SVGID_10_);}
	.st6{clip-path:url(#SVGID_8_);mask:url(#SVGID_9_);fill:url(#SVGID_11_);}
	.st7{display:none;}
	.st8{display:inline;}
	.st9{clip-path:url(#SVGID_13_);}
	.st10{clip-path:url(#SVGID_15_);}
	.st11{filter:url(#Adobe_OpacityMaskFilter_1_);}
	.st12{clip-path:url(#SVGID_17_);fill:url(#SVGID_19_);}
	.st13{clip-path:url(#SVGID_17_);mask:url(#SVGID_18_);fill:url(#SVGID_20_);}
	.st14{clip-path:url(#SVGID_22_);fill:none;stroke:#FFFFFF;stroke-width:0.9562;stroke-miterlimit:10;}
	.st15{filter:url(#Adobe_OpacityMaskFilter_2_);}
	.st16{clip-path:url(#SVGID_24_);fill:url(#SVGID_26_);}
	.st17{clip-path:url(#SVGID_24_);mask:url(#SVGID_25_);fill:url(#SVGID_27_);}
	.st18{filter:url(#Adobe_OpacityMaskFilter_3_);}
	.st19{clip-path:url(#SVGID_29_);fill:url(#SVGID_31_);}
	.st20{clip-path:url(#SVGID_29_);mask:url(#SVGID_30_);fill:url(#SVGID_32_);}
</style>
<g id="Layer_3">
	<linearGradient id="SVGID_1_" gradientUnits="userSpaceOnUse" x1="722" y1="-9.5" x2="722" y2="1296.5">
		<stop  offset="0.6595" style="stop-color:#FFFFFF"/>
		<stop  offset="0.7299" style="stop-color:#FBFFFF"/>
		<stop  offset="0.7989" style="stop-color:#EFFFFF"/>
		<stop  offset="0.867" style="stop-color:#DCFEFF"/>
		<stop  offset="0.8883" style="stop-color:#D4FEFF"/>
		<stop  offset="0.9242" style="stop-color:#D0FDFB"/>
		<stop  offset="0.9598" style="stop-color:#C4F8EF"/>
		<stop  offset="0.9952" style="stop-color:#B0F1DB"/>
		<stop  offset="1" style="stop-color:#ADF0D8"/>
	</linearGradient>
	<rect x="-7.5" y="-9.5" class="st0" width="1459" height="1306"/>
	<linearGradient id="SVGID_2_" gradientUnits="userSpaceOnUse" x1="721.5" y1="565" x2="721.5" y2="-363">
		<stop  offset="0.209" style="stop-color:#FFFFFF"/>
		<stop  offset="0.4621" style="stop-color:#C3F4C8"/>
		<stop  offset="1" style="stop-color:#39DC4A"/>
	</linearGradient>
	<rect x="-157" y="-363" class="st1" width="1757" height="928"/>
</g>
<g id="balls">
	<g id="Balls_1_">
		<g>
			<defs>
				
					<rect id="SVGID_3_" x="240.3" y="348.8" transform="matrix(0.503 -0.8643 0.8643 0.503 -520.2726 1440.8921)" width="1504.9" height="1648.1"/>
			</defs>
			<clipPath id="SVGID_4_">
				<use xlink:href="#SVGID_3_"  style="overflow:visible;"/>
			</clipPath>
			<g class="st2">
				<defs>
					
						<rect id="SVGID_5_" x="240.3" y="348.8" transform="matrix(0.503 -0.8643 0.8643 0.503 -520.2726 1440.8921)" width="1504.9" height="1648.1"/>
				</defs>
				<clipPath id="SVGID_6_">
					<use xlink:href="#SVGID_5_"  style="overflow:visible;"/>
				</clipPath>
				<g class="st3">
					<defs>
						<path id="SVGID_7_" d="M45.9,1235.1c-6.7-9-22.3-10.9-33.9-6.8c-4.4,1.6-7.8,4.6-9.9,8.2l0,0c-3.2,5.4-3.3,12.1,0.6,16.9
							c6.8,8.1,21,11.2,32.5,6c4.3-1.9,8-5.3,10.3-9.2C48.5,1245.2,49.1,1239.5,45.9,1235.1 M36.2,1296.2c-5.3-8.6-20.3-8.5-30.2-4
							c-9,4.1-16.9,15.9-11.7,24.5c5.3,8.7,18.9,9.6,29,4.6c4.5-2.2,9-6.4,11.8-11.1C37.8,1305.5,38.8,1300.4,36.2,1296.2 M140,1165
							c-5-7.4-18.9-6.7-28.1-1.1c-8,4.8-17.1,16.8-11.5,24.8c5.6,7.9,19.3,5.5,28.3,0.4c3.9-2.2,7.6-6,10-10.2
							C141.5,1174.1,142.5,1168.7,140,1165 M121.4,1213.1c-6.4-7.8-21.9-5.4-32.3,0.4c-7.9,4.4-20,17.3-12.5,25.3
							c7.1,7.6,22.3,5.3,32.4-0.4c4.2-2.4,8.8-6.9,11.6-11.7C123.3,1221.9,124.3,1216.8,121.4,1213.1 M108.8,1274.2
							c-6.2-8-21.5-5.7-31.8,0.1c-8,4.5-18.7,16.7-12.5,25.1c6.3,8.5,21.6,6.7,31.6,1.3c4.4-2.4,9-6.9,11.8-11.8
							C110.9,1283.7,112,1278.1,108.8,1274.2 M201.6,1140.5c-4.3-7-17.4-4.9-25.5,0.9c-7.8,5.6-16,17.1-11.2,24.2
							c4.8,7,17.4,4.1,25.9-1.3c3.5-2.2,6.9-5.8,9.2-9.8C202.8,1149.6,204,1144.2,201.6,1140.5 M90,1337.6c-5.8-9.6-21.4-9.5-32-3.7
							c-9.3,5.1-19.7,18.3-14.3,28.2c5.6,10.2,21.3,11.8,32.7,5.8c4.7-2.4,9.1-6.8,12-11.8C92,1350,93.3,1343,90,1337.6 M266,1076
							c-3.3-7.2-14.7-3-21.1,2c-6.3,5-13,14.6-9.3,21c3.6,6.3,13.9,4.2,20.6-0.5c3.1-2.2,5.9-5.3,7.9-8.7
							C266.7,1085.2,267.8,1080,266,1076 M200.3,1190.2c-5.1-6.6-17.9-4.1-26,1.4c-7.1,4.9-15.6,15.7-10.2,22.7
							c5.4,7.1,18.6,4.1,26.7-1c3.4-2.1,6.5-5.4,8.6-9C202.2,1199.5,203.2,1194.1,200.3,1190.2 M330,983.9
							c-3-10.1-15.6-2.6-21.3,2.6c-6.8,6.2-14.8,20.4-11.1,29.2c3.4,8.3,14.9,3.6,21.1-2.4c2.6-2.5,5-5.6,6.9-9
							C329.5,997.6,331.7,989.8,330,983.9 M257.6,1125.3c-3.6-6.2-13.8-4.2-20.5,0.5c-6.4,4.5-12.8,14.1-9,20.1
							c3.8,6,14,4.2,20.8-0.4c2.9-2,5.6-4.9,7.4-8C258.7,1133.4,259.6,1128.8,257.6,1125.3 M80.2,1421.5
							c-7.4-11-23.2-16.7-37.5-10.3c-13.5,6-16.8,23.2-10,32.8c7.6,10.9,23.6,19.1,38.4,12.2c4.2-1.9,7.2-5,9.3-8.5
							C85.2,1439.3,84.7,1428.1,80.2,1421.5 M191.3,1246c-5.4-7.3-18.4-7-27.8-0.9c-8.4,5.5-15,15.9-9.5,23.7c5.7,8,19.4,7.3,29,2.3
							c3.4-1.8,6-4.5,7.8-7.6C194.2,1257.6,194.7,1250.4,191.3,1246 M391.8,912.2c-1.8-7.5-11.2-6.3-17.3-1.1
							c-6.9,6-12.1,15.8-9.9,23.4c2,7.1,11.1,6.1,17.1,1c2.7-2.3,5.2-5.2,7-8.3C391.6,922.3,392.9,916.9,391.8,912.2 M316.8,1047.9
							c-2.8-8.5-14.4-4.7-20.7,1.5c-7.1,6.9-13.9,18.3-10.7,26.1c3,7.3,14.3,4,20.7-1.4c2.8-2.3,5.3-5.4,7.3-8.8
							C316.8,1059.5,318.5,1052.9,316.8,1047.9 M379.1,961.3c-1.7-7.7-10.8-7.2-16.9-1.3c-7,6.7-11.8,16.8-9.8,24.8
							c1.8,7.3,11,6.2,16.9,0.9c2.5-2.3,4.7-5,6.4-7.9C378.8,972.5,380.2,966.5,379.1,961.3 M258.6,1168.3c-4.5-7.1-16.6-6.7-25-0.6
							c-7.9,5.7-14.2,16-9.3,23.6c4.8,7.5,17.4,6.4,25.8,1.4c3.1-1.8,5.6-4.5,7.3-7.5C260.6,1179.4,261.4,1172.6,258.6,1168.3
							 M307.2,1106c-3.7-6.9-14.3-4.5-21,0.4c-6.5,4.7-12.7,14.3-9,20.6c3.8,6.3,13.8,5.4,20.9,0.5c3-2,5.7-4.9,7.5-8.1
							C308.2,1115,309.2,1110,307.2,1106 M427.2,892.3c-4.9-2.4-12.1,1.1-16.1,8c-4,6.9-3.2,14.4,1.7,16.5c4.9,2.2,12-1.6,15.9-8.2
							c0.1-0.1,0.1-0.2,0.2-0.4C432.7,901.6,432,894.6,427.2,892.3 M187.5,1313.9c-5.9-9.3-20.4-11.4-31.1-5.3
							c-10.2,5.7-16.3,19.5-10.1,28.4c6.2,8.9,20.9,11.7,32,5.3c3.6-2.1,6.5-5.1,8.5-8.5C190.4,1327.3,191,1319.5,187.5,1313.9
							 M366.7,1021.6c-2.4-8.6-13.3-7.2-20.2-0.7c-7.1,6.8-14.2,19-10.9,27.6c3.1,8.1,13.8,5.7,20.5,0.1c2.7-2.3,5.1-5.2,6.9-8.3
							C366.6,1034.2,368.3,1027.1,366.7,1021.6 M254.2,1231.5c-5.4-7.4-17.4-11-27.5-4.2c-9,6-12.6,18.2-7.4,25.7
							c5.5,7.9,18.1,10.3,28.2,4.3c2.9-1.7,5.1-4.1,6.6-6.7C257.9,1244.3,257.7,1236.3,254.2,1231.5 M402.4,1001.7
							c1.5-6.1-1.3-10.4-6.3-9.7c-5,0.8-10.4,6.6-12,12.9c-1.6,6.3,1.3,10.5,6.4,9.5c3.7-0.7,7.5-4,9.9-8
							C401.3,1004.9,402,1003.4,402.4,1001.7 M357.6,1083.5c-3.6-7.4-14.2-5.7-21.3,0.1c-7.2,5.8-13.2,16.6-9.4,23.8
							c3.7,7,14.5,6.1,21.8,0.4c2.7-2.1,5.1-4.9,6.9-8C358.7,1094.4,359.9,1088.3,357.6,1083.5 M164,1404.9
							c-7.6-10.9-24-14.1-37.6-7.2c-13.9,7-16.9,25-10.1,35.3c7.4,11.3,24,18,38.4,9c3.7-2.3,6.7-5.6,8.8-9.2
							C168.7,1423.7,169.1,1412.1,164,1404.9 M252.3,1294.6c-5.8-7.2-19-9.3-29-2.6c-9.1,6.2-13.5,19.3-7.4,26.9
							c6.1,7.7,20,9,29.8,2.3c2.7-1.8,4.8-4.2,6.4-6.9C256,1307.7,256.3,1299.4,252.3,1294.6 M314,1210.6
							c-5.7-6.4-18.4-7.2-27.4-0.7c-8.4,6-12.2,18.2-6.4,25.2c6,7.2,18.7,6.7,27.7,0.5c2.6-1.8,4.6-4.1,6.1-6.7
							C317.6,1222.7,317.9,1215,314,1210.6 M252.6,1363.8c-6.4-8.5-21-8.3-31-1.5c-10.8,7.3-14.2,22.6-8,31.6
							c6.4,9.2,21.4,11.1,32,2.1c2.4-2.1,4.4-4.6,6-7.4C256.4,1380.4,257.5,1370.2,252.6,1363.8 M165.1,1504.3
							c-7.5-11.6-24-19.6-39-11.2c-15.6,8.7-11.9,28.4-5.2,38.1c7.4,10.8,24.2,23.2,39.2,13.7c3.1-1.9,5.3-4.4,7-7.2
							C173.2,1527.2,170.2,1512.1,165.1,1504.3 M315.2,1272.7c-6-6.6-19.1-6.9-28.1,0.2c-8.4,6.6-12,19.1-5.9,26.1
							c6.3,7.3,19.3,6.8,28.4,0.1c2.4-1.8,4.4-4,5.8-6.5C319.3,1286,319.4,1277.5,315.2,1272.7 M372.4,1181.9
							c-5.9-6.2-19.1-4.3-27.5,2.6c-7.5,6.1-12.8,18.2-6.5,24.9c6.4,6.7,19.3,4.1,27.6-2.2c2.4-1.8,4.4-4.2,5.9-6.9
							C375.6,1193.8,376.4,1186.1,372.4,1181.9 M315.7,1337.6c-5.9-7.3-19.3-8.6-28.9-0.7c-9.1,7.5-11.9,21.2-5.8,29.1
							c6.3,8.2,20,8.5,29.6,0.8c2.2-1.8,4-3.9,5.4-6.2C320.4,1352.8,320.2,1343.1,315.7,1337.6 M374.6,1245.4
							c-5.8-6.6-19.1-5.8-27.7,1.7c-7.9,6.8-11.7,19.4-5.5,26.3c6.3,7,19.1,6.1,27.8-0.8c2.2-1.7,4-3.9,5.3-6.2
							C378.7,1259.3,378.9,1250.3,374.6,1245.4 M253.6,1448.9c-6.4-9.8-21.8-11.6-32.7-2.8c-12,9.6-12.8,27.7-6.3,37.8
							c6.2,9.7,22,15.8,33.3,4.4c1.8-1.8,3.4-3.9,4.7-6.1C258.8,1471.4,259,1457.3,253.6,1448.9 M428.5,1228.9
							c-4.6-6.2-14.4-5.4-21.3,0.7c-6.9,6.1-9.2,16-4.3,22.1c4.7,6,14.4,6.4,21.3,0.2c1.6-1.4,2.9-3.1,4-4.9
							C431.6,1241,432,1233.7,428.5,1228.9 M377.4,1315.2c-5.4-7.6-18.6-9.7-27.9-1.4c-8.8,7.9-10.9,21.3-5,29.1
							c5.9,7.7,18.8,10,28.2,2.7c2.1-1.6,3.7-3.6,4.9-5.7C382.4,1331.8,381.6,1321,377.4,1315.2 M319.7,1416.2
							c-6-9.4-20.6-10.6-30.5-1.3c-10.8,10.1-11.8,27.8-5.6,37.8c6,9.6,21.2,13,31.2,1.7c1.4-1.5,2.6-3.2,3.6-5
							C324.6,1438.8,325.1,1424.6,319.7,1416.2 M257.6,1552.2c-6.2-10.4-21.8-16.2-33.5-6c-12.4,10.8-10,29.2-3.3,39.4
							c5.9,9,21.9,19,33.5,7.4c1.6-1.6,3-3.4,4.1-5.3C265.2,1576.2,262.9,1561,257.6,1552.2 M472.5,1207.9c-4-6.9-13.3-7.2-20.1-0.8
							c-7,6.5-8.9,16.6-4.5,23.4c4.1,6.4,13.5,8.2,20.4,1.9c1.5-1.4,2.7-2.9,3.6-4.5C475.7,1221.5,475.7,1213.4,472.5,1207.9
							 M520.7,1135.1c-2.8-6.6-12.7-3.7-18.3,1c-6.1,5.1-11.1,14.2-7.9,20.7c3.1,6.3,12.1,4.6,17.9-0.3c2.4-2,4.5-4.5,6.1-7.2
							C521.2,1144.5,522.4,1139.2,520.7,1135.1 M430.8,1290.1c-3.9-6.9-13.4-8.8-20.7-2.4c-7.4,6.6-8.2,17.4-3.9,24.4
							c4,6.6,13.3,9.2,20.4,2.8c1.5-1.4,2.8-3,3.8-4.7C434.1,1303.8,434.1,1295.7,430.8,1290.1 M379.8,1390.9
							c-5.4-8-18.2-13.2-27.8-4.6c-10.5,9.4-9.7,25.2-4,34.7c5.5,9.3,18.8,14.4,28.5,4.1c1.3-1.4,2.4-2.9,3.3-4.5
							C385.3,1411.2,384.8,1398.5,379.8,1390.9 M517.1,1182.8c-3.2-6.6-11.9-6.9-18.3-1.4c-6.6,5.8-8.9,15.2-5.2,21.7
							c3.3,6.1,11.6,7.5,17.9,1.9c1.6-1.5,3-3.2,4.1-5.1C518.8,1194.5,519.5,1187.8,517.1,1182.8 M562.7,1116.2
							c-2.7-6.8-11.3-6.5-17.4-1.4c-6.2,4.9-10.9,13.8-8.1,20.3c2.7,6.2,11.4,6.5,17.6,2.1c2.5-1.8,4.6-4.1,6.1-6.7
							C563.5,1126,564.3,1120.6,562.7,1116.2 M474.2,1270.6c-3.9-6.9-13.5-9.7-20.8-3.2c-7.3,6.6-8.3,17.7-4.3,24.9
							c3.9,6.9,13.4,9.8,20.8,3.5c1.6-1.4,3-3,4-4.8C477.6,1284.6,477.4,1276.3,474.2,1270.6 M325,1518.2c-6.5-10-22.1-14-32.7-2.6
							c-11.2,12.1-11,31.3-3.3,42.1c6.9,9.7,23.5,13.1,33.8,0.9c1.2-1.4,2.2-2.9,3.1-4.4C332.8,1542.5,331,1527.4,325,1518.2
							 M434.8,1371.5c-4.1-7.6-16.2-13.2-25-4.2c-8.7,8.9-9.1,23.5-4.1,32.2c4.5,7.9,15.9,12.3,24.5,4.1c1.5-1.4,2.8-3.1,3.8-4.8
							C439.1,1390.1,438.5,1378.4,434.8,1371.5 M378,1493.1c-5-7.4-16.2-10.4-23.6-1.6c-7.3,8.7-7.3,23.6-1.6,31.4
							c5.1,7.1,17.1,9.3,24.5,0.9c0.8-0.9,1.5-1.9,2.1-2.9C384.6,1512,382.3,1499.7,378,1493.1 M490.7,1351.3
							c-4.2-8.1-16.7-14-26.2-5.4c-9,8.1-10.8,22.7-6.1,31.7c4.5,8.6,16.2,12.1,25.6,5.2c2.4-1.8,4.3-4,5.8-6.5
							C494.3,1368.2,494.1,1357.7,490.7,1351.3 M420.3,1468c-3.9-7-14.1-10.7-20.5-2c-6.6,8.9-5.8,22.7-0.6,30.4
							c4.2,6.3,14.8,11.1,21.4,2c0.4-0.5,0.7-1.1,1.1-1.6C427.1,1487.7,424.3,1475.3,420.3,1468 M458.9,1475.1
							c4.5-8.8,3.5-19.6-0.6-26.9c-3.3-5.9-12.7-10.6-18.5-3.2c-6.1,7.9-3.7,21.8,0.6,28.9c3.3,5.6,12.9,11,18.1,2
							C458.6,1475.6,458.8,1475.3,458.9,1475.1 M536,1333.2c-4.1-7.4-14-11.1-22.1-4.9c-8,6.2-9.5,17.9-5.5,25.4
							c4,7.5,13.9,10.8,22.1,4.9c2.2-1.6,3.9-3.5,5.1-5.7C539.2,1346.7,539.1,1338.8,536,1333.2 M395.7,1561.9
							c-5.8-6.8-17.5-9.1-24.9-0.3c-7,8.3-5.5,22.3,1.1,28.6c6.1,5.9,19.3,7.6,25.9-0.4c0.6-0.7,1.1-1.5,1.6-2.3
							C404.3,1579.3,401.1,1567.9,395.7,1561.9 M620.2,1255c-3.3-6.3-11.3-9.7-18.8-6.4c-6.9,3.1-8.6,13.4-5.4,18.4
							c3.5,5.6,10.9,8.7,18,5.1c2.5-1.3,4.5-3.2,5.9-5.5C621.9,1263.1,622.2,1258.9,620.2,1255 M446.2,1543.2
							c-3.6-5-12.7-9.5-17.9-2.1c-5.3,7.5-2.6,17.9,2.3,23.5c3.9,4.6,13.8,9,18.6,2.3c0.2-0.3,0.4-0.6,0.6-0.9
							C453.9,1559,450.3,1548.8,446.2,1543.2 M583.3,1317.3c-4.1-7-14.1-11-21.8-4.2c-7.7,6.7-8.7,18.5-4.4,26.1
							c4.2,7.4,14.6,11,22.4,4.5c1.6-1.4,3-3,4-4.7C587.4,1332.2,586.7,1323.4,583.3,1317.3 M482,1550.3c4.3-7.8,0.6-19.3-3.9-25.8
							c-5.3-7.7-12.8-8.3-16.2-2.1c-4.5,8.3-1.6,19.7,3.2,25c2.9,3.2,12.4,10.7,16.8,3.1C481.9,1550.4,482,1550.3,482,1550.3
							 M621.6,1297.7c-3.6-6-11.7-7.9-16.9-3.4c-6.4,5.5-5.3,15.3-1.8,20.8c4.1,6.7,11.2,7.3,16,2.1c0.8-0.9,1.6-1.9,2.2-3
							C624.1,1309.1,624.6,1302.6,621.6,1297.7 M657.1,1248.6c-5.4-3.7-13.4-3.3-17.6,1.1c-4.2,4.5-3,11.1,2.3,14.3
							c5.3,3.2,12.8,2.2,17-1.8c0.7-0.7,1.3-1.4,1.7-2.2C662.7,1256.3,661.5,1251.7,657.1,1248.6 M512.9,1530.4
							c3.2-9.7,0.4-19.9-4.8-27c-5.4-7.3-13.7-8.2-16.1-2.8c-3.9,8.6-0.5,21.5,4.3,28.6c2.8,4.1,11.6,10.2,15.7,3.4
							C512.4,1532,512.7,1531.3,512.9,1530.4"/>
					</defs>
					<clipPath id="SVGID_8_">
						<use xlink:href="#SVGID_7_"  style="overflow:visible;"/>
					</clipPath>
					<defs>
						<filter id="Adobe_OpacityMaskFilter" filterUnits="userSpaceOnUse" x="-206.3" y="713.4" width="1081.8" height="1075.8">
							<feColorMatrix  type="matrix" values="1 0 0 0 0  0 1 0 0 0  0 0 1 0 0  0 0 0 1 0"/>
						</filter>
					</defs>
					<mask maskUnits="userSpaceOnUse" x="-206.3" y="713.4" width="1081.8" height="1075.8" id="SVGID_9_">
						<g class="st4">
							
								<linearGradient id="SVGID_10_" gradientUnits="userSpaceOnUse" x1="0" y1="2.041014e-02" x2="1" y2="2.041014e-02" gradientTransform="matrix(134.7878 671.9677 659.8931 -123.0425 254.79 922.9044)">
								<stop  offset="0" style="stop-color:#FFFFFF"/>
								<stop  offset="0.1865" style="stop-color:#FFFFFF"/>
								<stop  offset="0.2982" style="stop-color:#FFFFFF"/>
								<stop  offset="0.4198" style="stop-color:#FFFFFF"/>
								<stop  offset="0.4372" style="stop-color:#FCFCFC"/>
								<stop  offset="0.5097" style="stop-color:#F3F3F3"/>
								<stop  offset="0.6148" style="stop-color:#F0F0F0"/>
								<stop  offset="0.7237" style="stop-color:#DBDBDB"/>
								<stop  offset="0.7838" style="stop-color:#CCCCCC"/>
								<stop  offset="0.8679" style="stop-color:#808080"/>
								<stop  offset="0.9937" style="stop-color:#808080"/>
								<stop  offset="1" style="stop-color:#808080"/>
							</linearGradient>
							<polygon class="st5" points="693.4,713.4 875.5,1621.5 -24.1,1789.2 -206.3,881.1 							"/>
						</g>
					</mask>
					
						<linearGradient id="SVGID_11_" gradientUnits="userSpaceOnUse" x1="1.818989e-12" y1="2.041012e-02" x2="1" y2="2.041012e-02" gradientTransform="matrix(134.7878 671.9677 659.8931 -123.0425 254.7899 922.9044)">
						<stop  offset="0" style="stop-color:#AEFFFF"/>
						<stop  offset="0.1865" style="stop-color:#FFF2F4"/>
						<stop  offset="0.2982" style="stop-color:#FFD9DF"/>
						<stop  offset="0.4198" style="stop-color:#FFD3DA"/>
						<stop  offset="0.4268" style="stop-color:#FFD0D8"/>
						<stop  offset="0.4758" style="stop-color:#FDC1CE"/>
						<stop  offset="0.5325" style="stop-color:#FBB8C9"/>
						<stop  offset="0.6148" style="stop-color:#FBB5C7"/>
						<stop  offset="0.7237" style="stop-color:#F7A3BE"/>
						<stop  offset="0.7838" style="stop-color:#F59CBB"/>
						<stop  offset="0.8679" style="stop-color:#F8A5C1"/>
						<stop  offset="0.9937" style="stop-color:#FFBBD0"/>
						<stop  offset="1" style="stop-color:#FFBBD0"/>
					</linearGradient>
					<polygon class="st6" points="693.4,713.4 875.5,1621.5 -24.1,1789.2 -206.3,881.1 					"/>
				</g>
			</g>
		</g>
	</g>
</g>
<g id="rectangles" class="st7">
	<g id="Rectangles_1_" class="st8">
		<g>
			<defs>
				<rect id="SVGID_12_" x="-240" y="851" width="2481.1" height="1556.7"/>
			</defs>
			<clipPath id="SVGID_13_">
				<use xlink:href="#SVGID_12_"  style="overflow:visible;"/>
			</clipPath>
			<g class="st9">
				<defs>
					<rect id="SVGID_14_" x="-240" y="851" width="2481.1" height="1556.7"/>
				</defs>
				<clipPath id="SVGID_15_">
					<use xlink:href="#SVGID_14_"  style="overflow:visible;"/>
				</clipPath>
				<g class="st10">
					<defs>
						<path id="SVGID_16_" d="M-5.6,909.8L-151.7,1298c-17.3,46,7,97.5,54.1,114.4l1048.9,376.8c47.1,16.9,99.7-6.8,117-52.8
							l146.1-388.3c17.3-46-7-97.5-54.1-114.4l-1049-376.8c-10.3-3.7-20.8-5.5-31.2-5.5C43,851.5,7.8,873.9-5.6,909.8"/>
					</defs>
					<clipPath id="SVGID_17_">
						<use xlink:href="#SVGID_16_"  style="overflow:visible;"/>
					</clipPath>
					<defs>
						<filter id="Adobe_OpacityMaskFilter_1_" filterUnits="userSpaceOnUse" x="-354.1" y="-64.7" width="1770.9" height="2787">
							<feColorMatrix  type="matrix" values="1 0 0 0 0  0 1 0 0 0  0 0 1 0 0  0 0 0 1 0"/>
						</filter>
					</defs>
					<mask maskUnits="userSpaceOnUse" x="-354.1" y="-64.7" width="1770.9" height="2787" id="SVGID_18_">
						<g class="st11">
							
								<linearGradient id="SVGID_19_" gradientUnits="userSpaceOnUse" x1="-1.2481" y1="-0.5642" x2="-0.288" y2="-0.5642" gradientTransform="matrix(-337.9368 -1517.2712 1233.1421 -969.8123 966.4238 -388.6665)">
								<stop  offset="0" style="stop-color:#FFFFFF"/>
								<stop  offset="6.396400e-02" style="stop-color:#FFFFFF"/>
								<stop  offset="0.2466" style="stop-color:#FFFFFF"/>
								<stop  offset="0.2694" style="stop-color:#FFFFFF"/>
								<stop  offset="0.4811" style="stop-color:#E9E9E9"/>
								<stop  offset="0.8344" style="stop-color:#C4C4C4"/>
								<stop  offset="1" style="stop-color:#B3B3B3"/>
							</linearGradient>
							<polygon class="st12" points="1416.8,1663.8 1022.9,-64.7 -354.1,993.8 39.8,2722.3 							"/>
						</g>
					</mask>
					
						<linearGradient id="SVGID_20_" gradientUnits="userSpaceOnUse" x1="-1.2481" y1="-0.5642" x2="-0.288" y2="-0.5642" gradientTransform="matrix(-337.9368 -1517.2712 1233.1421 -969.8123 966.4238 -388.6665)">
						<stop  offset="0" style="stop-color:#FFFFFF"/>
						<stop  offset="6.396400e-02" style="stop-color:#FFF7F8"/>
						<stop  offset="0.2466" style="stop-color:#FFF7F8"/>
						<stop  offset="0.2694" style="stop-color:#FFF7F8"/>
						<stop  offset="0.4811" style="stop-color:#FECBD5"/>
						<stop  offset="0.8344" style="stop-color:#FC879E"/>
						<stop  offset="1" style="stop-color:#FB6C88"/>
					</linearGradient>
					<polygon class="st13" points="1416.8,1663.8 1022.9,-64.7 -354.1,993.8 39.8,2722.3 					"/>
				</g>
				<g class="st10">
					<defs>
						<rect id="SVGID_21_" x="-240" y="851" width="2481.1" height="1556.7"/>
					</defs>
					<clipPath id="SVGID_22_">
						<use xlink:href="#SVGID_21_"  style="overflow:visible;"/>
					</clipPath>
					<path class="st14" d="M111.3,856.9l1049,376.8c47.1,16.9,71.4,68.3,54.1,114.4l-146.1,388.3c-17.3,46-69.9,69.8-117,52.8
						L-97.6,1412.4c-47.1-16.9-71.4-68.3-54.1-114.4L-5.6,909.8C11.6,863.8,64.3,840,111.3,856.9z"/>
				</g>
				<g class="st10">
					<defs>
						<path id="SVGID_23_" d="M-30.6,1225.9l-195.1,485.3c-41.8,104,11,222.5,117.4,263.4l1091.4,419.1c24.6,9.4,50,13.9,75,14h0.9
							c82.9-0.2,161.5-49.1,193.5-128.8l195.1-485.3c41.8-104-11-222.4-117.4-263.3L238.8,1111.1c-24.7-9.5-50.3-14-75.5-14
							C80.3,1097.1,1.5,1146.1-30.6,1225.9"/>
					</defs>
					<clipPath id="SVGID_24_">
						<use xlink:href="#SVGID_23_"  style="overflow:visible;"/>
					</clipPath>
					<defs>
						<filter id="Adobe_OpacityMaskFilter_2_" filterUnits="userSpaceOnUse" x="-891.7" y="248.6" width="3005.3" height="3007.6">
							<feColorMatrix  type="matrix" values="1 0 0 0 0  0 1 0 0 0  0 0 1 0 0  0 0 0 1 0"/>
						</filter>
					</defs>
					<mask maskUnits="userSpaceOnUse" x="-891.7" y="248.6" width="3005.3" height="3007.6" id="SVGID_25_">
						<g class="st15">
							
								<linearGradient id="SVGID_26_" gradientUnits="userSpaceOnUse" x1="-0.9936" y1="-0.9303" x2="-2.946921e-02" y2="-0.9303" gradientTransform="matrix(-1030.1161 -1419.1101 1408.995 -1085.6868 1394.8463 16.413)">
								<stop  offset="0" style="stop-color:#FFFFFF"/>
								<stop  offset="6.396400e-02" style="stop-color:#FFFFFF"/>
								<stop  offset="0.2562" style="stop-color:#FFFFFF"/>
								<stop  offset="0.2802" style="stop-color:#FFFFFF"/>
								<stop  offset="0.3735" style="stop-color:#F5F5F5"/>
								<stop  offset="0.8003" style="stop-color:#C8C8C8"/>
								<stop  offset="1" style="stop-color:#B3B3B3"/>
							</linearGradient>
							<polygon class="st16" points="2113.7,1937.6 859.3,248.6 -891.7,1567.2 362.7,3256.2 							"/>
						</g>
					</mask>
					
						<linearGradient id="SVGID_27_" gradientUnits="userSpaceOnUse" x1="-0.9936" y1="-0.9303" x2="-2.946921e-02" y2="-0.9303" gradientTransform="matrix(-1030.1161 -1419.1101 1408.995 -1085.6868 1394.8463 16.4131)">
						<stop  offset="0" style="stop-color:#FFFFFF"/>
						<stop  offset="6.396400e-02" style="stop-color:#FFF7F8"/>
						<stop  offset="0.2562" style="stop-color:#FFF7F8"/>
						<stop  offset="0.2802" style="stop-color:#FFF7F8"/>
						<stop  offset="0.3735" style="stop-color:#EFF7E9"/>
						<stop  offset="0.8003" style="stop-color:#ABF8A6"/>
						<stop  offset="1" style="stop-color:#90F88C"/>
					</linearGradient>
					<polygon class="st17" points="2113.7,1937.6 859.3,248.6 -891.7,1567.2 362.7,3256.2 					"/>
				</g>
				<g class="st10">
					<defs>
						<path id="SVGID_28_" d="M810.5,1237.8c-61.6,163.8,25.1,347.2,192.9,407.4l801,287.8c167.6,60.2,355.3-24.6,416.8-188.4
							c13.4-35.6,19.8-72.2,19.9-108.3v-1.1c-0.2-129.2-81.8-251.1-212.7-298.1l-801-287.8c-36.7-13.2-74.3-19.4-111.3-19.4
							C983.8,1030,858.7,1109.7,810.5,1237.8"/>
					</defs>
					<clipPath id="SVGID_29_">
						<use xlink:href="#SVGID_28_"  style="overflow:visible;"/>
					</clipPath>
					<defs>
						<filter id="Adobe_OpacityMaskFilter_3_" filterUnits="userSpaceOnUse" x="426.3" y="684.6" width="2137.4" height="1654">
							<feColorMatrix  type="matrix" values="1 0 0 0 0  0 1 0 0 0  0 0 1 0 0  0 0 0 1 0"/>
						</filter>
					</defs>
					<mask maskUnits="userSpaceOnUse" x="426.3" y="684.6" width="2137.4" height="1654" id="SVGID_30_">
						<g class="st18">
							
								<linearGradient id="SVGID_31_" gradientUnits="userSpaceOnUse" x1="-1.9438" y1="-0.9454" x2="-0.9896" y2="-0.9454" gradientTransform="matrix(-396.6043 -1109.0515 1169.2242 -302.4887 2013.6371 -414.9599)">
								<stop  offset="0" style="stop-color:#FFFFFF"/>
								<stop  offset="6.396400e-02" style="stop-color:#FFFFFF"/>
								<stop  offset="0.2466" style="stop-color:#FFFFFF"/>
								<stop  offset="0.2694" style="stop-color:#FFFFFF"/>
								<stop  offset="0.4811" style="stop-color:#E9E9E9"/>
								<stop  offset="0.8344" style="stop-color:#C4C4C4"/>
								<stop  offset="1" style="stop-color:#B3B3B3"/>
							</linearGradient>
							<polygon class="st19" points="2563.7,1911.7 2114.7,684.6 426.3,1111.5 875.3,2338.6 							"/>
						</g>
					</mask>
					
						<linearGradient id="SVGID_32_" gradientUnits="userSpaceOnUse" x1="-1.9438" y1="-0.9454" x2="-0.9896" y2="-0.9454" gradientTransform="matrix(-396.6044 -1109.0516 1169.2244 -302.4887 2013.6372 -414.9599)">
						<stop  offset="0" style="stop-color:#FFFFFF"/>
						<stop  offset="6.396400e-02" style="stop-color:#FFF7F8"/>
						<stop  offset="0.2466" style="stop-color:#FFF7F8"/>
						<stop  offset="0.2694" style="stop-color:#FFF7F8"/>
						<stop  offset="0.4811" style="stop-color:#FFDCCC"/>
						<stop  offset="0.8344" style="stop-color:#FFB288"/>
						<stop  offset="1" style="stop-color:#FFA26D"/>
					</linearGradient>
					<polygon class="st20" points="2563.7,1911.7 2114.7,684.6 426.3,1111.5 875.3,2338.6 					"/>
				</g>
			</g>
		</g>
	</g>
</g>
</svg>
